<svg xmlns="http://www.w3.org/2000/svg" width="66" height="66" viewBox="0 0 66 66">
  <g id="组_9784" data-name="组 9784" transform="translate(-16921.221 -4045.22)">
    <g id="页面-1" transform="translate(16921.221 4045.22)">
      <g id="编组-26">
        <rect id="矩形" width="66" height="66" fill="none"/>
        <g id="_20200522shopping-bag" data-name="20200522shopping-bag" transform="translate(4.412 1.692)">
          <path id="路径-4" d="M9.227,6.564,1.033,43.924H59L51.88,6.564Z" transform="translate(-1.033 19.026)" fill="none" stroke="#c00000" stroke-width="2" fill-rule="evenodd"/>
          <path id="路径" d="M4.536,25.286C6.237,7.645,10.926.375,18.6.375s12.636,7.27,14.873,24.911" transform="translate(9.947 -0.375)" fill="none" stroke="#c00000" stroke-width="2" fill-rule="evenodd"/>
        </g>
      </g>
    </g>
    <g id="路径_9415" data-name="路径 9415" transform="translate(16940.588 4075.759)">
      <path id="路径_11489" data-name="路径 11489" d="M13.733,0,27.465,2.68V13.733c0,12.162-13.733,16.419-13.733,16.419S0,25.894,0,13.733V2.68Z" fill="none"/>
      <path id="路径_11490" data-name="路径 11490" d="M13.733,1.426,1.4,3.834v9.9a13.179,13.179,0,0,0,1.917,6.928,16.991,16.991,0,0,0,4.326,4.674,24.543,24.543,0,0,0,6.09,3.335,24.39,24.39,0,0,0,6.023-3.286A17.061,17.061,0,0,0,24.124,20.7a13.18,13.18,0,0,0,1.941-6.967v-9.9L13.733,1.426m0-1.426L27.465,2.68V13.733c0,12.162-13.733,16.419-13.733,16.419S0,25.894,0,13.733V2.68Z" fill="#c00000"/>
    </g>
    <g id="路径_9416" data-name="路径 9416" transform="translate(16944.492 4080.052)">
      <path id="路径_11491" data-name="路径 11491" d="M9.822,0l9.822,1.917v7.9c0,8.7-9.822,11.744-9.822,11.744S0,18.521,0,9.822v-7.9Z" fill="none"/>
      <path id="路径_11492" data-name="路径 11492" d="M9.822,1.426,1.4,3.07V9.822A9.767,9.767,0,0,0,5.69,17.79a17.188,17.188,0,0,0,4.134,2.291,17.056,17.056,0,0,0,4.067-2.243,9.788,9.788,0,0,0,4.353-8.015V3.07L9.822,1.426M9.822,0l9.822,1.917V9.822c0,8.7-9.822,11.744-9.822,11.744S0,18.521,0,9.822V1.917Z" fill="#c00000"/>
    </g>
    <path id="路径_9417" data-name="路径 9417" d="M16952.57,4078.735v9.667h9.211v-7.8Z" transform="translate(1.748 1.843)" fill="#c00000"/>
    <path id="路径_9418" data-name="路径 9418" d="M16952.957,4088v10.625s-6.965-2.243-8.785-8.573l-.277-2.052Z" transform="translate(1.365 2.25)" fill="#c00000"/>
  </g>
</svg>
