<svg xmlns="http://www.w3.org/2000/svg" width="57.904" height="56.931" viewBox="0 0 57.904 56.931">
  <g id="组_9787" data-name="组 9787" transform="translate(1809.801 15342.931)">
    <g id="组_9786" data-name="组 9786" transform="translate(-1802.692 -15344.42)">
      <path id="路径_9419" data-name="路径 9419" d="M24.387,38.889a18.7,18.7,0,1,1,18.7-18.7A18.7,18.7,0,0,1,24.387,38.889Zm0-36.277A17.582,17.582,0,1,0,41.969,20.194,17.582,17.582,0,0,0,24.387,2.612Z" fill="#c00000"/>
      <path id="路径_9420" data-name="路径 9420" d="M111,234.851c-.035-.042-.088-.19-.74-1.558a4.337,4.337,0,0,1-.393-2.6c.028-.368.06-.785.06-1.322a2.912,2.912,0,0,0-1.248-2.514c-.2-.2-.424-.417-.663-.67-1.462-1.546-1.364-2.581-.768-4.751.61-2.209-.105-2.416-1.672-2.875a9.268,9.268,0,0,1-1.9-.719c-1.725-.94-2.37-2.7-1.977-5.375a8.908,8.908,0,0,0-.936-4.642.535.535,0,0,1,.947-.5,9.863,9.863,0,0,1,1.052,5.3c-.33,2.24.112,3.562,1.431,4.281a8.36,8.36,0,0,0,1.69.631c1.543.452,3.292.964,2.4,4.186-.554,2-.571,2.588.512,3.731.228.242.442.449.635.642A3.916,3.916,0,0,1,111,229.37c0,.575-.035,1.034-.06,1.4a3.319,3.319,0,0,0,.295,2.062,10.059,10.059,0,0,0,.873,1.606c.182.231.3.354.077.54a2.3,2.3,0,0,1-1.185-.127Z" transform="translate(-91.669 -196.838)" fill="#c00000"/>
      <path id="路径_9421" data-name="路径 9421" d="M238.444,57.1a.539.539,0,0,1-.508-.384c-.123-.391-1.143-3.852.652-5.014a26.551,26.551,0,0,0,3.2-2.427c.708-.957,2.286-3.6,1.543-4.963a8.383,8.383,0,0,0-2.931-3,17.528,17.528,0,0,1-1.718-1.338c-1.613-1.473-2.7-1.966-3.524-1.608-1.515.661-2.9-.471-4.653-2.511a1.744,1.744,0,0,1-.445-1.78,2.085,2.085,0,0,1,1.715-1.221,1.44,1.44,0,0,1,1.438.548c.035.055.123.179.2.179.133,0,.536-.157,1.392-1.56l.056-.1c.025-.04.074-.113.14-.216,2.574-3.936,2.531-5.3,2.4-5.7a.515.515,0,0,0-.389-.347c-1.4-.431-2.167-1-2.353-1.758a1.579,1.579,0,0,1,.456-1.465,4.4,4.4,0,0,1,.7-.53,5.282,5.282,0,0,0,.726-.545.584.584,0,0,1-.014-.7.507.507,0,0,1,.74-.11.972.972,0,0,1,.4.822c-.028.64-.663,1.063-1.276,1.473a4.105,4.105,0,0,0-.519.38c-.067.069-.214.245-.175.4.021.084.2.526,1.62.965a1.6,1.6,0,0,1,1.09,1.042c.431,1.264-.389,3.461-2.517,6.71-.056.088-.1.153-.123.19l-.053.088c-.621,1.02-1.374,2.065-2.279,2.079h-.018a1.263,1.263,0,0,1-1.08-.669c-.018-.029-.158-.1-.428-.066a1.062,1.062,0,0,0-.838.508c-.077.208.091.464.242.64,1.932,2.251,2.773,2.518,3.44,2.226,1.592-.694,3.24.519,4.642,1.8a16.715,16.715,0,0,0,1.616,1.257,9.534,9.534,0,0,1,3.257,3.366C245.5,46.034,242.9,49.6,242.6,50a.6.6,0,0,1-.063.069,26.351,26.351,0,0,1-3.387,2.576c-.926.6-.442,2.946-.2,3.72a.563.563,0,0,1-.344.7,1.048,1.048,0,0,1-.167.032Zm15.771-8.647a.541.541,0,0,1-.5-.358c-.431-1.18-.238-2.463.028-4.243.091-.6.193-1.29.284-2.05.077-.651-.021-.976-.126-1.053-.137-.1-.5-.007-.652.073a3.157,3.157,0,0,1-3-.139c-.747-.4-1.63-1.341-1.588-3.527a11.067,11.067,0,0,1,.575-3.176l.112-.311c.175-.49.47-1.308.351-1.56,0-.011-.018-.04-.112-.069-1.262-.4-1.827-1.031-1.413-3.4.284-1.637.07-1.8-1.115-2.712-.119-.091-.249-.19-.382-.3a3.375,3.375,0,0,1-.933-3.812.529.529,0,0,1,.694-.311.566.566,0,0,1,.3.724,2.277,2.277,0,0,0,.582,2.507c.133.1.256.2.375.289,1.343,1.031,1.921,1.582,1.536,3.808-.319,1.82-.049,1.9.67,2.131a1.222,1.222,0,0,1,.764.643,3.412,3.412,0,0,1-.309,2.445l-.1.3c-.386,1.107-1.122,4.458.5,5.332a2.157,2.157,0,0,0,2.02.143,1.79,1.79,0,0,1,1.767,0,2.146,2.146,0,0,1,.568,2.1c-.091.778-.2,1.473-.288,2.087-.249,1.666-.417,2.77-.084,3.673a.564.564,0,0,1-.309.72.628.628,0,0,1-.21.051Zm.316-16.518a2.373,2.373,0,0,1-.778-.143c-1.006-.351-2.058-1.2-2.023-2.083a1.026,1.026,0,0,1,.849-.95,4.9,4.9,0,0,0,.877-.336c.473-.219.515-.5,1.076-.136.249.164.622.556.465.816s-.3.329-.549.164c-.067-.048-.228.022-.557.175a5.844,5.844,0,0,1-1.052.4,2.475,2.475,0,0,0,1.252.892c.827.285,1.073-.281,1.1-.347.109-.285.187-.436.457-.322a.647.647,0,0,1,.281.8,1.384,1.384,0,0,1-1.394,1.075Z" transform="translate(-214.923 -18.286)" fill="#c00000"/>
    </g>
    <path id="路径_9426" data-name="路径 9426" d="M-1809.8-15337.737h5.941l6.972,40.97h38.093l5.665-26.84h-6.734" fill="none" stroke="#c00000" stroke-width="2"/>
    <g id="椭圆_20" data-name="椭圆 20" transform="translate(-1794 -15294)" fill="none" stroke="#c00000" stroke-width="2">
      <circle cx="4" cy="4" r="4" stroke="none"/>
      <circle cx="4" cy="4" r="3" fill="none"/>
    </g>
    <g id="椭圆_21" data-name="椭圆 21" transform="translate(-1770 -15294)" fill="none" stroke="#c00000" stroke-width="2">
      <circle cx="4" cy="4" r="4" stroke="none"/>
      <circle cx="4" cy="4" r="3" fill="none"/>
    </g>
  </g>
</svg>
